HIERARCHY
ROOT Hips
{
  OFFSET 23.6125 96.1923 -296.931
  CHANNELS 6 Xposition Yposition Zposition Zrotation Xrotation Yrotation
  JOINT ToSpine
  {
    OFFSET -2.69724 7.43032 -0.144315
    CHANNELS 3 Zrotation Xrotation Yrotation
    JOINT Spine
    {
      OFFSET -0.0310711 10.7595 1.96963
      CHANNELS 3 Zrotation Xrotation Yrotation
      JOINT Spine1
      {
        OFFSET 13.1342 3.43533 0.764692
        CHANNELS 3 Zrotation Xrotation Yrotation
        JOINT Neck
        {
          OFFSET 29.8703 7.82586 -0.130764
          CHANNELS 3 Zrotation Xrotation Yrotation
          JOINT Head
          {
            OFFSET 9.52751 0.295786 -0.907742
            CHANNELS 3 Zrotation Xrotation Yrotation
            End Site
            {
              OFFSET 16.4037 0.713936 2.7358
            }
          }
        }
        JOINT LeftShoulder
        {
          OFFSET 27.5574 4.95586 2.47156
          CHANNELS 3 Zrotation Xrotation Yrotation
          JOINT LeftArm
          {
            OFFSET 1.20734 -0.998971 20.1238
            CHANNELS 3 Zrotation Xrotation Yrotation
            JOINT LeftForeArm
            {
              OFFSET 26.8049 -0.0536703 -0.155908
              CHANNELS 3 Zrotation Xrotation Yrotation
              JOINT LeftHand
              {
                OFFSET 26.6817 0 0.320147
                CHANNELS 3 Zrotation Xrotation Yrotation
                End Site
                {
                  OFFSET 18.6119 0 0.382219
                }
              }
            }
          }
        }
        JOINT RightShoulder
        {
          OFFSET 27.5927 4.71444 -2.65209
          CHANNELS 3 Zrotation Xrotation Yrotation
          JOINT RightArm
          {
            OFFSET 2.83739 -1.17114 -18.7564
            CHANNELS 3 Zrotation Xrotation Yrotation
            JOINT RightForeArm
            {
              OFFSET 28.839 -0.0548439 1.22491
              CHANNELS 3 Zrotation Xrotation Yrotation
              JOINT RightHand
              {
                OFFSET 26.5114 0 -0.101894
                CHANNELS 3 Zrotation Xrotation Yrotation
                End Site
                {
                  OFFSET 18.2168 0 0
                }
              }
            }
          }
        }
      }
    }
  }
  JOINT LeftUpLeg
  {
    OFFSET -4.76168 -1.9167 -10.2353
    CHANNELS 3 Zrotation Xrotation Yrotation
    JOINT LeftLeg
    {
      OFFSET 2.55951 -42.0585 -8.02213
      CHANNELS 3 Zrotation Xrotation Yrotation
      JOINT LeftFoot
      {
        OFFSET 3.16357 -42.5282 -3.95426
        CHANNELS 3 Zrotation Xrotation Yrotation
        JOINT LeftToeBase
        {
          OFFSET 0.346054 -6.02161 12.8035
          CHANNELS 3 Zrotation Xrotation Yrotation
          End Site
          {
            OFFSET 0.134235 -1.35082 5.13018
          }
        }
      }
    }
  }
  JOINT RightUpLeg
  {
    OFFSET -4.94151 -1.41743 10.6446
    CHANNELS 3 Zrotation Xrotation Yrotation
    JOINT RightLeg
    {
      OFFSET -2.56294 -42.0364 -7.94377
      CHANNELS 3 Zrotation Xrotation Yrotation
      JOINT RightFoot
      {
        OFFSET -3.0952 -42.555 -4.02241
        CHANNELS 3 Zrotation Xrotation Yrotation
        JOINT RightToeBase
        {
          OFFSET -0.0828122 -6.13587 12.8035
          CHANNELS 3 Zrotation Xrotation Yrotation
          End Site
          {
            OFFSET -0.131328 -1.35082 5.13018
          }
        }
      }
    }
  }
}
MOTION
Frames:	11
Frame Time:	0.0333333
23.6125 96.1923 -296.931 -15.0078 -69.9145 -104.591 -70.1915 0 88.8779 119.083 75.0043 -29.0735 -2.82848 26.9692 0.302826 -159.749 22.6585 176.63 -160.307 62.3888 -168.648 1.00721 -10.4214 -25.943 -71.9447 62.0821 -48.6091 21.0718 3.29706 -80.8736 0.420957 0.000575474 0.35866 -1.54324 6.89453 36.8709 -57.0369 -46.9253 92.7304 36.722 -0.623002 88.9499 0.58676 0.000330778 0.0646651 -23.4576 2.5229 98.5687 -2.88784 32.3974 -13.5351 -10.0049 10.8038 2.97857 6.82805 -15.3824 12.6671 -79.1546 5.54483 88.8259 1.81285 34.0509 13.8362 5.82186 21.8377 -3.36342 2.0884 -11.7929 -11.0453 
23.3458 96.0611 -285.323 -16.6979 -69.5255 -107.076 -70.1915 0 88.8779 104.85 76.969 -16.8782 -0.630526 27.1144 1.11614 -159.763 21.9969 176.037 -159.431 61.6319 -170.083 1.15669 -9.42245 -24.9046 -73.2367 63.1527 -46.5619 21.5741 2.76168 -82.4024 0.420957 0.000575474 0.35866 -1.46817 6.83076 35.9938 -55.2827 -47.3425 92.6978 36.0029 0.254102 90.13 0.58676 0.000330778 0.0646651 -25.258 0.976759 99.0122 -3.59516 27.2751 -6.3594 -10.66 12.852 3.47102 5.63562 -12.9023 6.78354 -75.3023 4.98013 92.8112 2.75192 47.799 2.3961 5.90244 21.5063 -3.34733 2.34679 -5.88561 -14.7727 
23.1635 95.0406 -273.466 -16.2028 -69.0633 -106.291 -70.1915 0 88.8779 89.6788 76.7874 -1.53438 0.758833 26.64 0.41633 -157.981 21.0821 175.138 -159.783 60.7356 -169.24 1.18265 -9.25094 -24.991 -75.5393 62.5276 -44.4643 21.8159 2.25258 -83.7249 0.420957 0.000575474 0.35866 -1.45914 6.40325 37.4046 -54.7429 -46.9541 90.9651 29.0133 -0.363394 89.1299 0.58676 0.000330778 0.0646651 -26.6147 -0.236492 102.537 -2.91343 30.9723 -8.10733 -12.3792 13.1522 3.94641 3.3297 -8.04197 3.50758 -68.3633 2.72667 90.2119 4.03503 63.1366 -6.88563 -4.78493 19.6478 0.0739848 1.09669 -6.98744 -2.54521 
23.1142 93.7627 -262.261 -13.1978 -70.2476 -104.278 -70.1915 0 88.8779 83.7283 76.1134 0.294375 -0.016291 25.2596 3.68635 -154.153 20.2245 174.938 -157.041 59.8503 -168.446 1.14548 -9.57513 -26.9578 -76.3356 60.3763 -46.0954 21.3154 1.9931 -84.2287 0.420957 0.000575474 0.35866 -1.52645 6.58832 37.7339 -55.526 -48.0245 87.3233 16.0414 -0.334028 88.6306 0.58676 0.000330778 0.0646651 -29.4285 -2.99959 105.08 -2.37995 41.2781 -3.71394 4.21807 -6.66066 -0.911994 -3.69527 13.4237 -7.32274 -60.7672 -0.512292 88.7094 9.26653 76.4189 -16.1481 -7.38007 15.9427 0.891924 1.33155 -9.54449 -2.25648 
23.0645 92.5294 -252.047 -7.47444 -70.9611 -98.7389 -70.1915 0 88.8779 87.5382 74.4136 -4.58487 -1.58381 23.8735 3.00831 -152.714 19.2128 173.303 -156.356 58.8682 -168.786 1.1059 -9.84871 -28.8782 -74.8777 56.7275 -51.646 19.3434 1.87091 -84.0079 0.420957 0.000575474 0.35866 -1.63495 6.03403 41.7355 -71.7177 -42.1062 73.0002 24.659 -3.08355 83.1325 0.58676 0.000330778 0.0646651 -31.6618 -6.23754 101.714 -3.95644 50.4061 -7.38942 7.11091 -11.8814 -1.20597 -1.60339 -2.75354 15.9318 -50.4139 -2.42009 87.6373 36.6585 85.769 -45.9953 -12.0532 11.5879 2.01551 2.02272 -15.5561 -4.49477 
22.5705 91.8181 -242.474 3.43275 -72.1864 -88.8179 -70.1915 0 88.8779 86.8653 72.6139 -6.72202 1.60067 22.1954 1.15737 -155.17 18.3975 171.294 -155.262 57.9076 -170.799 0.886503 -10.9948 -30.0484 -73.8391 51.1432 -61.6952 19.3151 2.8432 -81.305 0.420957 0.000575474 0.35866 -1.80627 5.74046 45.9864 -73.682 -39.2041 71.3429 21.3755 -6.12639 74.612 0.58676 0.000330778 0.0646651 -37.4124 -8.631 100.759 -4.85298 54.526 -8.08524 7.85783 -17.3572 -1.28408 0.370289 -5.96673 16.5356 -39.2859 -4.00152 88.0784 127.888 86.9358 -141.319 -11.4127 6.46371 1.76236 2.07578 -16.1137 -4.72519 
22.5608 92.0047 -232.355 6.53773 -72.1842 -85.46 -70.1915 0 88.8779 89.0221 71.1921 -8.8767 0.868884 20.6119 0.997048 -154.072 17.3258 173.576 -157.669 57.0505 -167.769 0.806606 -11.3701 -30.6596 -76.6654 48.7003 -64.4226 19.8767 2.22607 -83.2153 0.420957 0.000575474 0.35866 -1.90821 5.91661 46.6947 -71.3934 -39.8874 68.9441 16.0614 -6.04443 69.8252 0.58676 0.000330778 0.0646651 -45.2641 -9.68038 98.3444 -4.96122 53.7527 -9.86838 6.313 -19.6883 -1.38207 3.2518 -10.5789 18.2868 -29.9829 -3.13933 89.2923 39.8737 87.037 -55.5217 -11.151 1.51956 1.62112 2.14782 -16.7151 -6.13071 
23.026 93.2513 -219.316 34.3064 -75.6861 -60.8787 -70.1915 0 88.8779 67.7303 68.8083 4.65279 12.2703 18.0331 2.6379 -152.94 16.1257 174.32 -156.812 55.7153 -169.065 0.962559 -10.625 -29.0635 -79.1854 50.4902 -66.1982 19.668 0.311393 -88.4438 0.420957 0.000575474 0.35866 -1.77981 5.48432 46.9661 -69.8594 -40.7217 64.0241 17.8047 -5.93247 72.0522 0.58676 0.000330778 0.0646651 -65.2948 -15.9499 90.9165 -3.34473 43.4742 -10.6639 4.23301 -15.6392 -1.29959 5.50469 -13.6443 16.4166 -32.9431 -10.4712 88.4626 7.65986 76.1302 -18.2222 -11.0318 -2.72191 1.52807 2.28368 -21.765 -13.4631 
22.8042 93.8392 -209.887 10.9404 -70.2109 -78.8518 -70.1915 0 88.8779 75.5985 68.4594 7.40563 3.25943 18.1866 0.972881 -151.727 14.8972 175.671 -155.286 54.2958 -170.036 1.1186 -9.76686 -28.2658 -79.2886 51.9187 -67.0774 20.2667 -2.15612 -95.0919 0.420957 0.000575474 0.35866 -1.76129 5.48369 46.6536 -69.608 -41.9323 58.4784 20.3779 -5.3643 75.7348 0.58676 0.000330778 0.0646651 -61.6101 -8.34616 92.8121 -3.48591 46.107 -8.21501 2.34879 -11.1821 -1.0484 8.16506 -17.3938 8.17216 -22.7547 -2.68524 86.5786 1.05015 55.6541 -12.6879 -7.17899 1.50369 1.05479 2.30981 -19.0849 -7.59617 
22.8921 94.7022 -198.372 12.2234 -69.5002 -76.748 -70.1915 0 88.8779 69.5927 66.5369 14.6731 4.66216 17.2346 0.520517 -150.325 13.6574 175.794 -153.141 52.721 -172.473 1.19511 -9.31361 -27.755 -79.988 53.0028 -65.2898 21.3439 -4.73622 -101.173 0.420957 0.000575474 0.35866 -1.72003 5.36986 46.5958 -69.3962 -42.5239 54.7945 21.5335 -4.9881 77.4227 0.58676 0.000330778 0.0646651 -67.7581 -5.90198 93.0865 -3.42469 43.5744 -10.6182 0.60106 -1.61588 -0.285313 7.6144 -16.3753 5.9803 -25.7869 -2.15144 84.2366 0.696861 30.3206 -4.52173 -1.19439 11.867 -0.48222 2.04363 -13.8379 -8.61469 
23.1042 94.6668 -187.426 18.3847 -68.6649 -70.3713 -70.1915 0 88.8779 65.6576 64.7472 17.9448 6.34835 15.9782 1.40908 -151.329 13.3254 177.19 -154.519 52.3626 -172.499 1.22857 -9.09819 -27.372 -77.6084 53.9904 -66.4966 25.0125 -7.23907 -104.349 0.420957 0.000575474 0.35866 -1.3658 4.6527 44.2885 -70.1053 -43.8469 53.48 22.0993 -4.2632 79.4631 0.58676 0.000330778 0.0646651 -69.2622 -4.65527 92.2277 -3.83306 49.1192 -7.93884 -0.213753 1.34414 0.0447195 0.381743 -3.09042 6.14271 -28.3274 -2.87091 84.6257 2.59201 13.9016 7.61847 5.66446 21.3821 -3.25657 2.55694 -14.0996 -21.6007 
